<svg xmlns="http://www.w3.org/2000/svg" style="display: none;">
    <!-- Menu icon -->
    <symbol id="menu-icon" viewBox="0 0 24 24">
        <path d="M4 6h16M4 12h16M4 18h16" fill="none" stroke="currentColor" stroke-width="2"
            stroke-linecap="round" stroke-linejoin="round" />
    </symbol>

    <!-- Settings icon -->
    <symbol
        id="settings-icon"
        viewBox="0 0 24 24"
        fill="none"
        stroke="currentColor"
        stroke-width="2"
        stroke-linecap="round"
        stroke-linejoin="round"
    >
        <path stroke="none" d="M0 0h24v24H0z" fill="none" />
        <path
            d="M10.325 4.317c.426 -1.756 2.924 -1.756 3.35 0a1.724 1.724 0 0 0 2.573 1.066c1.543 -.94 3.31 .826 2.37 2.37a1.724 1.724 0 0 0 1.065 2.572c1.756 .426 1.756 2.924 0 3.35a1.724 1.724 0 0 0 -1.066 2.573c.94 1.543 -.826 3.31 -2.37 2.37a1.724 1.724 0 0 0 -2.572 1.065c-.426 1.756 -2.924 1.756 -3.35 0a1.724 1.724 0 0 0 -2.573 -1.066c-1.543 .94 -3.31 -.826 -2.37 -2.37a1.724 1.724 0 0 0 -1.065 -2.572c-1.756 -.426 -1.756 -2.924 0 -3.35a1.724 1.724 0 0 0 1.066 -2.573c-.94 -1.543 .826 -3.31 2.37 -2.37c1 .608 2.296 .07 2.572 -1.065z" />
        <path d="M9 12a3 3 0 1 0 6 0a3 3 0 0 0 -6 0" />
    </symbol>

    <!-- Home icon -->
    <symbol id="home-icon" viewBox="0 0 24 24" fill="none" stroke="currentColor" stroke-width="2"
        stroke-linecap="round" stroke-linejoin="round">
        <path stroke="none" d="M0 0h24v24H0z" fill="none" />
        <path d="M5 12l-2 0l9 -9l9 9l-2 0" />
        <path d="M5 12v7a2 2 0 0 0 2 2h10a2 2 0 0 0 2 -2v-7" />
        <path d="M9 21v-6a2 2 0 0 1 2 -2h2a2 2 0 0 1 2 2v6" />
    </symbol>

    <!-- Plant icon -->
    <symbol id="plant-icon" viewBox="0 0 24 24" fill="none" stroke="currentColor" stroke-width="2"
        stroke-linecap="round" stroke-linejoin="round">
        <path stroke="none" d="M0 0h24v24H0z" fill="none" />
        <path d="M7 15h10v4a2 2 0 0 1 -2 2h-6a2 2 0 0 1 -2 -2v-4z" />
        <path d="M12 9a6 6 0 0 0 -6 -6h-3v2a6 6 0 0 0 6 6h3" />
        <path d="M12 11a6 6 0 0 1 6 -6h3v1a6 6 0 0 1 -6 6h-3" />
        <path d="M12 15l0 -6" />
    </symbol>

    <!-- Search icon -->
    <symbol id="search-icon" viewBox="0 0 24 24" fill="none" stroke="currentColor" stroke-width="2"
        stroke-linecap="round" stroke-linejoin="round">
        <path stroke="none" d="M0 0h24v24H0z" fill="none" />
        <path d="M10 10m-7 0a7 7 0 1 0 14 0a7 7 0 1 0 -14 0" />
        <path d="M21 21l-6 -6" />
    </symbol>

    <!-- Logout icon -->
    <symbol id="logout-icon" viewBox="0 0 24 24" fill="none" stroke="currentColor"
        stroke-width="2" stroke-linecap="round" stroke-linejoin="round">
        <path stroke="none" d="M0 0h24v24H0z" fill="none" />
        <path d="M5 12l14 0" />
        <path d="M5 12l4 4" />
        <path d="M5 12l4 -4" />
    </symbol>

    <!-- Admin logo -->
    <symbol id="admin-icon" viewBox="0 0 24 24" fill="none" stroke="currentColor"
        stroke-width="2" stroke-linecap="round" stroke-linejoin="round">
        <path
            d="M12 3a12 12 0 0 0 8.5 3a12 12 0 0 1 -8.5 15a12 12 0 0 1 -8.5 -15a12 12 0 0 0 8.5 -3" />
    </symbol>

    <!-- GSAP animation -->
    <symbol id="plant-gsap" viewBox="0 0 502 702" fill="none" stroke="currentColor" stroke-width="2"
        stroke-linecap="round" stroke-linejoin="round">
        <path id="stem"
            d="M285.613 432.489C283.915 430.904 282.923 430.687 281.113 430.989L294.113 417.489L297.113 421.989C316.197 415.12 328.713 414.446 354.613 419.489C409.77 438.544 422.126 466.929 441.613 519.989C407.808 531.676 388.151 532.403 351.613 521.489M285.613 432.989C300.613 484.16 316.773 500.481 351.613 519.989" />
        <path id="leaf1"
            d="M385.613 304.989C350.965 323.083 336.386 339.129 319.613 378.989L334.113 392.489L338.613 394.989C367.231 403.061 381.28 404.05 403.613 400.989C455.175 382.547 476.852 362.138 500.613 304.989C453.196 290.105 428.305 289.917 387.113 304.989" />
        <path id="leaf2"
            d="M334.113 128.989C307.472 155.628 298.251 174.754 295.613 218.989L300.613 241.489H301.113L305.613 238.989C338.028 238.176 355.322 233.511 383.613 212.989C423.02 171.747 430.801 146.794 430.613 100.489C385.375 98.0445 364.326 104.427 334.113 128.989Z" />
        <path id="leaf3"
            d="M186.613 0.48941C174.368 40.7584 173.884 62.4258 184.113 99.4894C201.852 137.443 217.162 151.136 256.113 164.989L275.113 156.489L277.613 154.989C289.466 125.653 291.718 107.442 279.613 68.4894M188.113 0.48941C231.779 9.62601 251.614 24.3024 278.613 67.4894" />
        <path id="leaf4"
            d="M242.613 277.489C245.648 275.109 247.392 274.725 250.613 276.489L256.613 247.989L257.113 245.989C244.368 220.078 234.77 208.353 214.113 191.489C168.358 170.319 140.875 170.341 88.6125 191.489C97.0824 217.061 106.234 230.189 126.613 252.489C166.932 282.651 192.216 288.596 242.613 277.489Z" />
        <path id="leaf5"
            d="M136.113 425.489C145.494 423.177 150.75 422.175 160.113 421.989L169.613 405.989V404.989C159.792 370.804 151.191 356.052 131.113 336.489C87.6845 305.12 59.089 300.19 0.612549 313.489C11.0386 353.96 25.6376 374.251 60.6125 407.989C88.8189 424.13 105.297 428.346 136.113 425.489Z" />
        <path id="leaf6"
            d="M108.613 544.489C153.804 532.758 172.558 517.296 193.613 472.989L189.613 460.489L184.613 450.989L183.113 451.489C157.464 440.566 140.664 440.473 106.613 450.489C66.3051 472.391 50.4821 490.317 35.1125 532.989C61.3603 543.552 77.4295 546.129 108.613 544.489Z" />
        <path id="leaf7"
            d="M211.113 499.989C203.624 590.172 225.352 632.624 287.613 700.989L300.613 687.989C258.031 640.831 241.26 612.436 230.613 556.489C225.783 492.054 236.701 464.517 280.113 430.489L295.113 415.489C309.469 404.053 318.043 399.136 334.613 393.989L320.113 380.489C293.784 392.009 278.766 402.857 251.613 428.489L282.613 357.489C296.063 316.11 300.056 290.868 299.613 241.489L295.113 221.489L288.613 195.489C282.947 180.143 280.021 171.638 276.113 156.989L257.113 165.489L266.613 187.489C279.514 226.377 281.305 245.849 276.113 276.989C268.508 270.494 264.35 264.325 257.113 248.989L251.613 276.989C286.769 308.149 269.784 337.737 245.613 388.489C234.075 413.102 227.959 431.343 217.613 470.989C206.666 443.994 195.964 429.944 170.113 406.489L161.113 421.989C181.926 442.605 189.344 453.779 194.613 472.989C203.738 482.012 207.41 487.892 211.113 499.989Z" />
    </symbol>
</svg>