<svg xmlns="http://www.w3.org/2000/svg" style="display: none;">
    <!-- Menu icon -->
    <symbol id="menu-icon" viewBox="0 0 24 24">
        <path d="M4 6h16M4 12h16M4 18h16" fill="none" stroke="currentColor" stroke-width="2"
            stroke-linecap="round" stroke-linejoin="round" />
    </symbol>

    <!-- Settings icon -->
    <symbol
        id="settings-icon"
        viewBox="0 0 24 24"
        fill="none"
        stroke="currentColor"
        stroke-width="2"
        stroke-linecap="round"
        stroke-linejoin="round"
    >
        <path stroke="none" d="M0 0h24v24H0z" fill="none" />
        <path
            d="M10.325 4.317c.426 -1.756 2.924 -1.756 3.35 0a1.724 1.724 0 0 0 2.573 1.066c1.543 -.94 3.31 .826 2.37 2.37a1.724 1.724 0 0 0 1.065 2.572c1.756 .426 1.756 2.924 0 3.35a1.724 1.724 0 0 0 -1.066 2.573c.94 1.543 -.826 3.31 -2.37 2.37a1.724 1.724 0 0 0 -2.572 1.065c-.426 1.756 -2.924 1.756 -3.35 0a1.724 1.724 0 0 0 -2.573 -1.066c-1.543 .94 -3.31 -.826 -2.37 -2.37a1.724 1.724 0 0 0 -1.065 -2.572c-1.756 -.426 -1.756 -2.924 0 -3.35a1.724 1.724 0 0 0 1.066 -2.573c-.94 -1.543 .826 -3.31 2.37 -2.37c1 .608 2.296 .07 2.572 -1.065z" />
        <path d="M9 12a3 3 0 1 0 6 0a3 3 0 0 0 -6 0" />
    </symbol>

    <!-- Home icon -->
    <symbol id="home-icon" viewBox="0 0 24 24" fill="none" stroke="currentColor" stroke-width="2"
        stroke-linecap="round" stroke-linejoin="round">
        <path stroke="none" d="M0 0h24v24H0z" fill="none" />
        <path d="M5 12l-2 0l9 -9l9 9l-2 0" />
        <path d="M5 12v7a2 2 0 0 0 2 2h10a2 2 0 0 0 2 -2v-7" />
        <path d="M9 21v-6a2 2 0 0 1 2 -2h2a2 2 0 0 1 2 2v6" />
    </symbol>

    <!-- Plant icon -->
    <symbol id="plant-icon" viewBox="0 0 24 24" fill="none" stroke="currentColor" stroke-width="2"
        stroke-linecap="round" stroke-linejoin="round">
        <path stroke="none" d="M0 0h24v24H0z" fill="none" />
        <path d="M7 15h10v4a2 2 0 0 1 -2 2h-6a2 2 0 0 1 -2 -2v-4z" />
        <path d="M12 9a6 6 0 0 0 -6 -6h-3v2a6 6 0 0 0 6 6h3" />
        <path d="M12 11a6 6 0 0 1 6 -6h3v1a6 6 0 0 1 -6 6h-3" />
        <path d="M12 15l0 -6" />
    </symbol>

    <!-- Search icon -->
    <symbol id="search-icon" viewBox="0 0 24 24" fill="none" stroke="currentColor" stroke-width="2"
        stroke-linecap="round" stroke-linejoin="round">
        <path stroke="none" d="M0 0h24v24H0z" fill="none" />
        <path d="M10 10m-7 0a7 7 0 1 0 14 0a7 7 0 1 0 -14 0" />
        <path d="M21 21l-6 -6" />
    </symbol>

    <!-- Logout icon -->
    <symbol id="logout-icon" viewBox="0 0 24 24" fill="none" stroke="currentColor"
        stroke-width="2" stroke-linecap="round" stroke-linejoin="round">
        <path stroke="none" d="M0 0h24v24H0z" fill="none" />
        <path d="M5 12l14 0" />
        <path d="M5 12l4 4" />
        <path d="M5 12l4 -4" />
    </symbol>

</svg>